<?xml version="1.0" standalone="no"?>
<!DOCTYPE svg PUBLIC "-//W3C//DTD SVG 20010904//EN"
 "http://www.w3.org/TR/2001/REC-SVG-20010904/DTD/svg10.dtd">
<svg version="1.0" xmlns="http://www.w3.org/2000/svg"
 width="1280.000000pt" height="1280.000000pt" viewBox="0 0 1280.000000 1280.000000"
 preserveAspectRatio="xMidYMid meet">
<metadata>
Created by potrace 1.15, written by Peter Selinger 2001-2017
</metadata>
<g transform="translate(0.000000,1280.000000) scale(0.100000,-0.100000)"
fill="#000000" stroke="none">
<path d="M10395 11773 c-255 -30 -417 -85 -606 -203 -75 -48 -402 -371 -3134
-3102 -1678 -1676 -3052 -3048 -3055 -3048 -3 0 -5 633 -5 1408 l0 1407 -23
102 c-43 194 -97 325 -201 480 -182 272 -474 466 -813 540 -115 25 -380 25
-495 0 -529 -113 -913 -502 -1020 -1032 -17 -86 -18 -233 -18 -3115 0 -2450 2
-3038 13 -3095 38 -201 137 -433 251 -585 205 -273 558 -466 912 -499 127 -12
2461 -13 4739 -2 l1365 7 97 26 c202 55 361 136 512 260 228 189 379 444 443
748 24 115 24 361 0 483 -102 511 -486 901 -1005 1019 l-97 22 -1420 3 -1419
4 3041 3042 c2412 2413 3051 3058 3090 3117 154 231 224 459 225 730 1 276
-80 531 -238 751 -67 92 -213 237 -305 302 -128 90 -315 171 -474 206 -105 23
-275 35 -360 24z"/>
</g>
</svg>
