<?xml version="1.0" standalone="no"?>
<!DOCTYPE svg PUBLIC "-//W3C//DTD SVG 20010904//EN"
 "http://www.w3.org/TR/2001/REC-SVG-20010904/DTD/svg10.dtd">
<svg version="1.0" xmlns="http://www.w3.org/2000/svg"
 width="1280.000000pt" height="1280.000000pt" viewBox="0 0 1280.000000 1280.000000"
 preserveAspectRatio="xMidYMid meet">
<metadata>
Created by potrace 1.15, written by Peter Selinger 2001-2017
</metadata>
<g transform="translate(0.000000,1280.000000) scale(0.100000,-0.100000)"
fill="#000000" stroke="none">
<path d="M2175 11770 c-144 -17 -320 -67 -440 -127 -161 -80 -360 -251 -467
-400 -321 -446 -325 -1036 -10 -1493 30 -43 1073 -1094 3085 -3107 l3041
-3042 -1419 -4 -1420 -3 -97 -22 c-460 -105 -818 -423 -962 -854 -48 -142 -61
-231 -61 -408 0 -237 36 -386 141 -590 68 -131 135 -222 241 -327 178 -175
399 -292 651 -342 94 -19 175 -20 3037 -27 2158 -5 2977 -3 3077 5 377 31 722
216 937 501 116 154 201 349 249 569 15 70 16 321 13 3106 -3 3280 0 3096 -57
3277 -139 443 -506 772 -976 875 -116 25 -380 25 -498 0 -259 -56 -476 -173
-660 -357 -179 -178 -293 -388 -352 -648 l-22 -97 -3 -1420 -4 -1419 -3047
3046 c-3273 3271 -3089 3093 -3287 3188 -205 98 -471 144 -690 120z"/>
</g>
</svg>
